<?xml version="1.0" encoding="UTF-8" standalone="no"?>
<!-- Created with Inkscape (http://www.inkscape.org/) -->

<svg
        width="189.56061mm"
        height="188.3925mm"
        viewBox="0 0 189.56061 188.3925"
        version="1.1"
        id="svg1"
        xml:space="preserve"
        inkscape:version="1.3 (0e150ed, 2023-07-21)"
        sodipodi:docname="LawWhite.svg"
        xmlns:inkscape="http://www.inkscape.org/namespaces/inkscape"
        xmlns:sodipodi="http://sodipodi.sourceforge.net/DTD/sodipodi-0.dtd"
        xmlns="http://www.w3.org/2000/svg"
        xmlns:svg="http://www.w3.org/2000/svg"><sodipodi:namedview
     id="namedview1"
     pagecolor="#ffffff"
     bordercolor="#999999"
     borderopacity="1"
     inkscape:showpageshadow="2"
     inkscape:pageopacity="0"
     inkscape:pagecheckerboard="0"
     inkscape:deskcolor="#d1d1d1"
     inkscape:document-units="mm"
     inkscape:zoom="0.54214734"
     inkscape:cx="281.28885"
     inkscape:cy="414.09407"
     inkscape:window-width="1440"
     inkscape:window-height="758"
     inkscape:window-x="0"
     inkscape:window-y="25"
     inkscape:window-maximized="0"
     inkscape:current-layer="g3" />
    <defs
            id="defs1"/>
    <g
            inkscape:label="Layer 1"
            inkscape:groupmode="layer"
            id="layer1"
            transform="translate(-8.1241261,-42.50573)"><g
       id="g3"><path
         style="fill:#ffffff;fill-opacity:1;stroke-width:0.264583"
         d="m 102.60004,42.50573 c 0.32571,41.202874 0.16286,41.202874 0.16286,41.202874 l 31.26858,9.934289 10.42286,-4.722857 -31.43144,-14.982865 z"
         id="path1" /><path
            style="fill:#ffffff;fill-opacity:1;stroke-width:0.264583"
            d="m 103.07687,230.89823 c -0.72255,-41.19782 -0.55971,-41.19941 -0.55971,-41.19941 l -31.362804,-9.63266 -10.376892,4.82304 31.574294,14.67943 z"
            id="path1-2"/><path
            style="fill:#ffffff;fill-opacity:1;stroke-width:0.264583"
            d="m 8.1241261,137.07492 c 41.2041249,-0.051 41.2030599,0.11188 41.2030599,0.11188 L 59.469756,105.98517 54.816492,95.531036 39.624375,126.86188 Z"
            id="path1-2-7"/><path
            style="fill:#ffffff;fill-opacity:1;stroke-width:0.264583"
            d="m 197.68474,136.99009 c -41.20416,-0.002 -41.20287,-0.16525 -41.20287,-0.16525 l -10.18296,31.18848 4.63971,10.46014 15.23268,-31.31113 z"
            id="path1-2-5"/><path
            style="fill:#ffffff;fill-opacity:1;stroke-width:0.264583"
            d="M 64.769039,98.722853 47.934795,82.173936 59.918493,88.451112 91.304373,73.899476 87.880459,85.883175 Z"
            id="path2"/><path
            style="fill:#ffffff;fill-opacity:1;stroke-width:0.264583"
            d="m 140.57576,99.460013 16.82399,-16.559333 -6.47374,11.878665 14.03263,31.621335 -11.92568,-3.62086 z"
            id="path2-4"/><path
            style="fill:#ffffff;fill-opacity:1;stroke-width:0.264583"
            d="m 140.72052,174.53054 16.9316,16.44929 -12.02054,-6.20636 -31.29946,14.73659 3.35313,-12.0037 z"
            id="path2-4-6"/><path
            style="fill:#ffffff;fill-opacity:1;stroke-width:0.264583"
            d="m 64.844152,174.4426 -16.425297,16.95488 6.189333,-12.02933 -14.780897,-31.27855 12.008435,3.33613 z"
            id="path2-4-6-6"/><path
            style="fill:#ffffff;fill-opacity:1;stroke-width:0.213853"
            d="m 101.448,102.71433 -28.96289,66.30924 29.57913,-28.89829 z"
            id="path3"/><path
            style="fill:#ffffff;fill-opacity:1;stroke-width:0.213853"
            d="m 103.05447,102.37101 28.96289,66.30924 -29.57913,-28.89829 z"
            id="path3-5"/></g></g></svg>
