<?xml version="1.0" encoding="UTF-8"?>
<svg id="Layer_1" data-name="Layer 1" xmlns="http://www.w3.org/2000/svg" viewBox="0 0 104.56 204.55">
  <defs>
    <style>
      .cls-1 {
        fill: #fff;
        stroke-width: 0px;
      }
    </style>
  </defs>
  <path class="cls-1" d="m51.93,130.38v-4.49c-11.59,6.9-22.57,13.44-33.56,19.98-4.58,2.73-9.22,5.35-13.69,8.24-2.56,1.66-3.87,1.15-4.69-2.12,1.85-1.14,3.68-2.56,5.74-3.48,6.35-2.83,9.71-8.09,11.28-14.4,2.01-8.06,4.67-16.05,4.06-24.59-.65-9.2,1.56-18.65-2.57-27.59-.41-.88.71-3.22,1.75-3.89,5.75-3.71,9.9-8.49,12.87-14.74,1.57-3.3,4.42-6.67,7.58-8.36,5.05-2.7,5.36-6.05,3.45-10.59,1.28-1.04,2.43-1.96,2.45-1.98,1.48-14.8,2.86-28.5,4.25-42.36,1.17,3.32,2.21,6.21,3.19,9.12.2.6.46,1.45.2,1.9-5.4,9.39-.59,19.5-2.52,28.34,3.07,2.1,5.48,3.75,7.89,5.4l-.73.97c-2.96-.94-5.92-1.87-9.48-3v8.35c8.82-.56,15.52,2.92,21.18,11.61h-30.38l.08,1.79c7.09,0,14.19-.2,21.26.11,2.47.11,5.14,1.03,7.26,2.34,4.24,2.62,8.15,5.77,12.21,8.68q6.24,4.48,3.15,10.62c-1.8-2.27-3.74-5.13-6.08-7.6-8.02-8.49-18-11.16-29.4-9.71-3.24.41-6.58.06-10.18.06v40.36c1.68.09,3.38.17,5.63.29,0-7.67,0-14.96,0-22.24,0-2.33-.19-4.67-.02-6.99.35-4.7,3.3-7.72,7.46-7.9,4.08-.17,7.6,2.67,8.05,7.27.44,4.46.21,8.98.23,13.48.03,5.3,0,10.61,0,15.94,2.84.43,5.25.8,8.16,1.24,0-8.42-.1-16.86.09-25.29.04-1.75,1.17-3.48,1.8-5.21,1.76.71,4.29.92,5.12,2.22,1.79,2.79,3.58,6.08,3.81,9.28.55,7.46.32,14.99.1,22.48-.09,2.99.64,4.94,3.35,6.47,1.34.76,2.07,2.62,2.43,5-13.42-12.03-28.98-13.78-46.68-10.93,2.12,3.48,4.15,6.81,5.93,9.72,1.2.07,1.65.24,1.82.09,4.55-4.01,8.52-2.6,13.24.37,13.8,8.68,27.95,16.81,41.95,25.18,1.11.67,2.15,1.46,3.53,2.42-1.48,2.21-2.84,4.22-4.37,6.5-16.35-9.62-32.37-19.05-48.39-28.48l.13.12Zm-27.19-12.23c3.03-1.87,5.41-2.88,7.14-4.55,1.45-1.39,2.95-3.53,3.03-5.4.32-7.28.24-14.58-.03-21.86-.08-2.03-1.33-4.01-2.04-6.01-2.02,1.23-4.28,2.2-5.99,3.77-1.11,1.02-2,2.89-2.03,4.39-.18,9.55-.09,19.11-.09,29.67Z"/>
  <path class="cls-1" d="m51.8,130.26c.14,12.46.45,24.93.32,37.39-.04,3.73,1.24,5.57,4.49,7.2,14.87,7.43,29.6,15.13,44.38,22.74,1,.52,1.96,1.11,2.98,1.68-5.03,6.35-4.99,6.27-11.75,2.78-12.4-6.41-24.81-12.81-37.35-18.96-1.56-.77-4.21-.61-5.81.2-12.31,6.22-24.64,12.45-36.64,19.23-4.88,2.76-8.44,3.2-11.39-1.65.35-2.23.96-4.35.97-6.47.05-10.32-.17-20.64-.01-30.96.03-1.64,1.04-3.99,2.35-4.78,15.79-9.55,31.71-18.88,47.59-28.26,0,0-.14-.13-.14-.13Zm-14.47,35.63c.24,0,.47,0,.71,0,0-2.46.65-5.16-.16-7.31-1.03-2.74-2.77-6.28-5.09-7.18-2.25-.88-6.34.3-8.39,2.04-6.04,5.13-7.98,12.15-6.06,19.82,1.03,4.12,3.73,6.9,7.44,6.26-1.62-1.91-4.51-3.84-5.17-6.35-1.8-6.88.15-13.24,5.47-18.09,4.6-4.2,9.87-2.18,10.91,4.03.37,2.22.24,4.53.34,6.79Z"/>
  <path class="cls-1" d="m86.26,168.03c-.2,4.86-.78,9.57-5.89,11.23-5.04,1.64-8.61-1.46-11.3-5.3-3.79-5.41-5.31-11.42-3.15-17.88,1.97-5.88,7.12-7.62,12.24-4.12,5.67,3.87,7.65,9.73,8.1,16.06Zm-1.98,2.01c-1.08-6.48-2.93-11.51-7.53-15.17-4.06-3.22-8.26-1.86-9.59,3.14-1.55,5.85-.12,11.26,3.62,15.9,2.05,2.55,4.8,5.79,8.27,3.65,2.38-1.47,3.53-4.95,5.23-7.53Z"/>
  <path class="cls-1" d="m78.18,160.53c-1.09,4.41-2.18,8.83-3.27,13.24l-1.39-.29c.91-4.43,1.83-8.86,2.74-13.29.64.11,1.28.22,1.92.34Z"/>
</svg>